<mxfile host="Electron" agent="Mozilla/5.0 (Windows NT 10.0; Win64; x64) AppleWebKit/537.36 (KHTML, like Gecko) draw.io/26.0.4 Chrome/128.0.6613.186 Electron/32.2.5 Safari/537.36" version="26.0.4">
  <diagram name="Page-1" id="UbOgiWGuy50sVmSl2qtO">
    <mxGraphModel dx="3134" dy="1936" grid="1" gridSize="10" guides="1" tooltips="1" connect="1" arrows="1" fold="1" page="1" pageScale="1" pageWidth="850" pageHeight="1100" math="0" shadow="0">
      <root>
        <mxCell id="0" />
        <mxCell id="1" parent="0" />
        <mxCell id="yxQGtqw12CraclqnggF_-93" value="PrivateCustomer" style="swimlane;fontStyle=0;childLayout=stackLayout;horizontal=1;startSize=26;fillColor=none;horizontalStack=0;resizeParent=1;resizeParentMax=0;resizeLast=0;collapsible=1;marginBottom=0;whiteSpace=wrap;html=1;" parent="1" vertex="1">
          <mxGeometry x="365" y="280" width="140" height="52" as="geometry" />
        </mxCell>
        <mxCell id="yxQGtqw12CraclqnggF_-94" value="&lt;div&gt;&lt;span style=&quot;background-color: transparent; color: light-dark(rgb(0, 0, 0), rgb(255, 255, 255));&quot;&gt;+ calculateBill(): double&lt;/span&gt;&lt;br&gt;&lt;/div&gt;&lt;div&gt;&lt;span style=&quot;background-color: transparent; color: light-dark(rgb(0, 0, 0), rgb(255, 255, 255));&quot;&gt;&lt;br&gt;&lt;/span&gt;&lt;/div&gt;" style="text;strokeColor=none;fillColor=none;align=left;verticalAlign=top;spacingLeft=4;spacingRight=4;overflow=hidden;rotatable=0;points=[[0,0.5],[1,0.5]];portConstraint=eastwest;whiteSpace=wrap;html=1;" parent="yxQGtqw12CraclqnggF_-93" vertex="1">
          <mxGeometry y="26" width="140" height="26" as="geometry" />
        </mxCell>
        <mxCell id="yxQGtqw12CraclqnggF_-95" value="FleetCustomer" style="swimlane;fontStyle=0;childLayout=stackLayout;horizontal=1;startSize=26;fillColor=none;horizontalStack=0;resizeParent=1;resizeParentMax=0;resizeLast=0;collapsible=1;marginBottom=0;whiteSpace=wrap;html=1;" parent="1" vertex="1">
          <mxGeometry x="710" y="280" width="170" height="78" as="geometry" />
        </mxCell>
        <mxCell id="yxQGtqw12CraclqnggF_-96" value="&lt;div&gt;&lt;span style=&quot;background-color: transparent; color: light-dark(rgb(0, 0, 0), rgb(255, 255, 255));&quot;&gt;+ calculateBill(): double&lt;/span&gt;&lt;br&gt;&lt;/div&gt;&lt;div&gt;&lt;span style=&quot;background-color: transparent; color: light-dark(rgb(0, 0, 0), rgb(255, 255, 255));&quot;&gt;&lt;br&gt;&lt;/span&gt;&lt;/div&gt;" style="text;strokeColor=none;fillColor=none;align=left;verticalAlign=top;spacingLeft=4;spacingRight=4;overflow=hidden;rotatable=0;points=[[0,0.5],[1,0.5]];portConstraint=eastwest;whiteSpace=wrap;html=1;" parent="yxQGtqw12CraclqnggF_-95" vertex="1">
          <mxGeometry y="26" width="170" height="26" as="geometry" />
        </mxCell>
        <mxCell id="yxQGtqw12CraclqnggF_-97" value="+ applyDiscount(): double" style="text;strokeColor=none;fillColor=none;align=left;verticalAlign=top;spacingLeft=4;spacingRight=4;overflow=hidden;rotatable=0;points=[[0,0.5],[1,0.5]];portConstraint=eastwest;whiteSpace=wrap;html=1;" parent="yxQGtqw12CraclqnggF_-95" vertex="1">
          <mxGeometry y="52" width="170" height="26" as="geometry" />
        </mxCell>
        <mxCell id="yxQGtqw12CraclqnggF_-98" value="StaffCustomer" style="swimlane;fontStyle=0;childLayout=stackLayout;horizontal=1;startSize=26;fillColor=none;horizontalStack=0;resizeParent=1;resizeParentMax=0;resizeLast=0;collapsible=1;marginBottom=0;whiteSpace=wrap;html=1;" parent="1" vertex="1">
          <mxGeometry x="530" y="280" width="160" height="78" as="geometry" />
        </mxCell>
        <mxCell id="yxQGtqw12CraclqnggF_-99" value="&lt;div&gt;&lt;span style=&quot;background-color: transparent; color: light-dark(rgb(0, 0, 0), rgb(255, 255, 255));&quot;&gt;+ calculateBill(): double&lt;/span&gt;&lt;br&gt;&lt;/div&gt;&lt;div&gt;&lt;span style=&quot;background-color: transparent; color: light-dark(rgb(0, 0, 0), rgb(255, 255, 255));&quot;&gt;&lt;br&gt;&lt;/span&gt;&lt;/div&gt;" style="text;strokeColor=none;fillColor=none;align=left;verticalAlign=top;spacingLeft=4;spacingRight=4;overflow=hidden;rotatable=0;points=[[0,0.5],[1,0.5]];portConstraint=eastwest;whiteSpace=wrap;html=1;" parent="yxQGtqw12CraclqnggF_-98" vertex="1">
          <mxGeometry y="26" width="160" height="26" as="geometry" />
        </mxCell>
        <mxCell id="yxQGtqw12CraclqnggF_-100" value="+ applyDiscount(): double" style="text;strokeColor=none;fillColor=none;align=left;verticalAlign=top;spacingLeft=4;spacingRight=4;overflow=hidden;rotatable=0;points=[[0,0.5],[1,0.5]];portConstraint=eastwest;whiteSpace=wrap;html=1;" parent="yxQGtqw12CraclqnggF_-98" vertex="1">
          <mxGeometry y="52" width="160" height="26" as="geometry" />
        </mxCell>
        <mxCell id="yxQGtqw12CraclqnggF_-101" value="&lt;span style=&quot;font-weight: 400;&quot;&gt;&amp;lt;&amp;lt;abstract&amp;gt;&amp;gt;&lt;/span&gt;&lt;div style=&quot;font-weight: 400;&quot;&gt;Customer&lt;/div&gt;" style="swimlane;fontStyle=1;align=center;verticalAlign=top;childLayout=stackLayout;horizontal=1;startSize=40;horizontalStack=0;resizeParent=1;resizeParentMax=0;resizeLast=0;collapsible=1;marginBottom=0;whiteSpace=wrap;html=1;" parent="1" vertex="1">
          <mxGeometry x="480" y="20" width="140" height="78" as="geometry" />
        </mxCell>
        <mxCell id="yxQGtqw12CraclqnggF_-102" value="&lt;div&gt;&lt;span style=&quot;background-color: transparent; color: light-dark(rgb(0, 0, 0), rgb(255, 255, 255));&quot;&gt;+calculateBill(): double&lt;/span&gt;&lt;br&gt;&lt;/div&gt;&lt;div&gt;&lt;span style=&quot;background-color: transparent; color: light-dark(rgb(0, 0, 0), rgb(255, 255, 255));&quot;&gt;&lt;br&gt;&lt;/span&gt;&lt;/div&gt;" style="text;strokeColor=none;fillColor=none;align=left;verticalAlign=top;spacingLeft=4;spacingRight=4;overflow=hidden;rotatable=0;points=[[0,0.5],[1,0.5]];portConstraint=eastwest;whiteSpace=wrap;html=1;" parent="yxQGtqw12CraclqnggF_-101" vertex="1">
          <mxGeometry y="40" width="140" height="38" as="geometry" />
        </mxCell>
        <mxCell id="yxQGtqw12CraclqnggF_-103" value="Extends" style="endArrow=block;endSize=16;endFill=0;html=1;rounded=0;exitX=0.5;exitY=0;exitDx=0;exitDy=0;entryX=0.767;entryY=1;entryDx=0;entryDy=0;entryPerimeter=0;edgeStyle=elbowEdgeStyle;elbow=vertical;" parent="1" source="yxQGtqw12CraclqnggF_-95" target="yxQGtqw12CraclqnggF_-102" edge="1">
          <mxGeometry width="160" relative="1" as="geometry">
            <mxPoint x="740" y="370" as="sourcePoint" />
            <mxPoint x="900" y="370" as="targetPoint" />
          </mxGeometry>
        </mxCell>
        <mxCell id="yxQGtqw12CraclqnggF_-104" value="Extends" style="endArrow=block;endSize=16;endFill=0;html=1;rounded=0;exitX=0.5;exitY=0;exitDx=0;exitDy=0;entryX=0.14;entryY=1.014;entryDx=0;entryDy=0;entryPerimeter=0;edgeStyle=elbowEdgeStyle;elbow=vertical;" parent="1" source="yxQGtqw12CraclqnggF_-93" target="yxQGtqw12CraclqnggF_-102" edge="1">
          <mxGeometry width="160" relative="1" as="geometry">
            <mxPoint x="680" y="410" as="sourcePoint" />
            <mxPoint x="660" y="270" as="targetPoint" />
          </mxGeometry>
        </mxCell>
        <mxCell id="yxQGtqw12CraclqnggF_-105" value="Extends" style="endArrow=block;endSize=16;endFill=0;html=1;rounded=0;exitX=0.5;exitY=0;exitDx=0;exitDy=0;entryX=0.5;entryY=0.978;entryDx=0;entryDy=0;entryPerimeter=0;edgeStyle=elbowEdgeStyle;elbow=vertical;" parent="1" source="yxQGtqw12CraclqnggF_-98" target="yxQGtqw12CraclqnggF_-102" edge="1">
          <mxGeometry width="160" relative="1" as="geometry">
            <mxPoint x="480" y="396" as="sourcePoint" />
            <mxPoint x="541" y="260" as="targetPoint" />
            <Array as="points">
              <mxPoint x="580" y="220" />
            </Array>
          </mxGeometry>
        </mxCell>
        <mxCell id="yxQGtqw12CraclqnggF_-106" value="«interface»&lt;br&gt;&lt;b&gt;Discountable&lt;/b&gt;" style="swimlane;fontStyle=0;childLayout=stackLayout;horizontal=1;startSize=26;fillColor=none;horizontalStack=0;resizeParent=1;resizeParentMax=0;resizeLast=0;collapsible=1;marginBottom=0;whiteSpace=wrap;html=1;" parent="1" vertex="1">
          <mxGeometry x="830" y="32" width="170" height="52" as="geometry" />
        </mxCell>
        <mxCell id="yxQGtqw12CraclqnggF_-107" value="+ applyDiscount(): double" style="text;strokeColor=none;fillColor=none;align=left;verticalAlign=top;spacingLeft=4;spacingRight=4;overflow=hidden;rotatable=0;points=[[0,0.5],[1,0.5]];portConstraint=eastwest;whiteSpace=wrap;html=1;" parent="yxQGtqw12CraclqnggF_-106" vertex="1">
          <mxGeometry y="26" width="170" height="26" as="geometry" />
        </mxCell>
        <mxCell id="yxQGtqw12CraclqnggF_-108" value="" style="endArrow=block;dashed=1;endFill=0;endSize=12;html=1;rounded=0;exitX=0.75;exitY=0;exitDx=0;exitDy=0;edgeStyle=elbowEdgeStyle;elbow=vertical;entryX=0.735;entryY=1.154;entryDx=0;entryDy=0;entryPerimeter=0;" parent="1" source="yxQGtqw12CraclqnggF_-95" target="yxQGtqw12CraclqnggF_-107" edge="1">
          <mxGeometry width="160" relative="1" as="geometry">
            <mxPoint x="870" y="340" as="sourcePoint" />
            <mxPoint x="1010" y="230" as="targetPoint" />
            <Array as="points">
              <mxPoint x="900" y="230" />
            </Array>
          </mxGeometry>
        </mxCell>
        <mxCell id="yxQGtqw12CraclqnggF_-109" value="" style="endArrow=block;dashed=1;endFill=0;endSize=12;html=1;rounded=0;exitX=0.75;exitY=0;exitDx=0;exitDy=0;entryX=0.076;entryY=1.154;entryDx=0;entryDy=0;entryPerimeter=0;edgeStyle=elbowEdgeStyle;elbow=vertical;jumpStyle=arc;" parent="1" source="yxQGtqw12CraclqnggF_-98" target="yxQGtqw12CraclqnggF_-107" edge="1">
          <mxGeometry width="160" relative="1" as="geometry">
            <mxPoint x="660" y="380" as="sourcePoint" />
            <mxPoint x="820" y="380" as="targetPoint" />
            <Array as="points">
              <mxPoint x="750" y="160" />
            </Array>
          </mxGeometry>
        </mxCell>
        <mxCell id="yxQGtqw12CraclqnggF_-110" value="&lt;p style=&quot;margin:0px;margin-top:4px;text-align:center;&quot;&gt;&lt;b&gt;Car&lt;/b&gt;&lt;/p&gt;&lt;hr size=&quot;1&quot; style=&quot;border-style:solid;&quot;&gt;&amp;nbsp;- make: String&lt;br&gt;&amp;nbsp;- model: String&lt;div&gt;&amp;nbsp;- plateNumber: String&lt;br&gt;&lt;div style=&quot;height:2px;&quot;&gt;&amp;nbsp;- owner: customer&lt;/div&gt;&lt;/div&gt;" style="verticalAlign=top;align=left;overflow=fill;html=1;whiteSpace=wrap;" parent="1" vertex="1">
          <mxGeometry x="890" y="-140" width="170" height="90" as="geometry" />
        </mxCell>
        <mxCell id="yxQGtqw12CraclqnggF_-111" value="Use" style="endArrow=open;endSize=12;dashed=1;html=1;rounded=0;exitX=0.25;exitY=1;exitDx=0;exitDy=0;entryX=0.907;entryY=0.026;entryDx=0;entryDy=0;edgeStyle=elbowEdgeStyle;elbow=vertical;entryPerimeter=0;" parent="1" source="yxQGtqw12CraclqnggF_-110" target="yxQGtqw12CraclqnggF_-101" edge="1">
          <mxGeometry width="160" relative="1" as="geometry">
            <mxPoint x="660" y="-50" as="sourcePoint" />
            <mxPoint x="820" y="-50" as="targetPoint" />
          </mxGeometry>
        </mxCell>
        <mxCell id="yxQGtqw12CraclqnggF_-112" value="CarList" style="swimlane;fontStyle=1;align=center;verticalAlign=top;childLayout=stackLayout;horizontal=1;startSize=26;horizontalStack=0;resizeParent=1;resizeParentMax=0;resizeLast=0;collapsible=1;marginBottom=0;whiteSpace=wrap;html=1;" parent="1" vertex="1">
          <mxGeometry x="1140" y="-42" width="280" height="110" as="geometry" />
        </mxCell>
        <mxCell id="yxQGtqw12CraclqnggF_-113" value="- cars: list&amp;lt;Car&amp;gt;" style="text;strokeColor=none;fillColor=none;align=left;verticalAlign=top;spacingLeft=4;spacingRight=4;overflow=hidden;rotatable=0;points=[[0,0.5],[1,0.5]];portConstraint=eastwest;whiteSpace=wrap;html=1;" parent="yxQGtqw12CraclqnggF_-112" vertex="1">
          <mxGeometry y="26" width="280" height="26" as="geometry" />
        </mxCell>
        <mxCell id="yxQGtqw12CraclqnggF_-114" value="" style="line;strokeWidth=1;fillColor=none;align=left;verticalAlign=middle;spacingTop=-1;spacingLeft=3;spacingRight=3;rotatable=0;labelPosition=right;points=[];portConstraint=eastwest;strokeColor=inherit;" parent="yxQGtqw12CraclqnggF_-112" vertex="1">
          <mxGeometry y="52" width="280" height="8" as="geometry" />
        </mxCell>
        <mxCell id="yxQGtqw12CraclqnggF_-115" value="&lt;div&gt;+ addCar(car: Car): void&lt;/div&gt;&lt;div&gt;+ getAllCars(): List&amp;lt;Car&amp;gt;&lt;/div&gt;" style="text;strokeColor=none;fillColor=none;align=left;verticalAlign=top;spacingLeft=4;spacingRight=4;overflow=hidden;rotatable=0;points=[[0,0.5],[1,0.5]];portConstraint=eastwest;whiteSpace=wrap;html=1;" parent="yxQGtqw12CraclqnggF_-112" vertex="1">
          <mxGeometry y="60" width="280" height="50" as="geometry" />
        </mxCell>
        <mxCell id="yxQGtqw12CraclqnggF_-116" value="&lt;div&gt;&lt;span style=&quot;font-weight: normal;&quot; data-end=&quot;374&quot; data-start=&quot;364&quot;&gt;&amp;lt;&amp;lt;abstract&amp;gt;&amp;gt;&lt;/span&gt;&lt;/div&gt;&lt;span style=&quot;font-weight: normal;&quot; data-end=&quot;374&quot; data-start=&quot;364&quot;&gt;Person&lt;/span&gt;" style="swimlane;fontStyle=1;align=center;verticalAlign=top;childLayout=stackLayout;horizontal=1;startSize=40;horizontalStack=0;resizeParent=1;resizeParentMax=0;resizeLast=0;collapsible=1;marginBottom=0;whiteSpace=wrap;html=1;" parent="1" vertex="1">
          <mxGeometry x="200" y="-308" width="190" height="190" as="geometry" />
        </mxCell>
        <mxCell id="yxQGtqw12CraclqnggF_-117" value="- fullName: String&lt;div&gt;- address: String&lt;br&gt;&lt;/div&gt;&lt;div&gt;- nationalID: String&lt;br&gt;&lt;/div&gt;&lt;div&gt;- contactNumber: String&lt;/div&gt;" style="text;strokeColor=none;fillColor=none;align=left;verticalAlign=top;spacingLeft=4;spacingRight=4;overflow=hidden;rotatable=0;points=[[0,0.5],[1,0.5]];portConstraint=eastwest;whiteSpace=wrap;html=1;" parent="yxQGtqw12CraclqnggF_-116" vertex="1">
          <mxGeometry y="40" width="190" height="70" as="geometry" />
        </mxCell>
        <mxCell id="yxQGtqw12CraclqnggF_-118" value="" style="line;strokeWidth=1;fillColor=none;align=left;verticalAlign=middle;spacingTop=-1;spacingLeft=3;spacingRight=3;rotatable=0;labelPosition=right;points=[];portConstraint=eastwest;strokeColor=inherit;" parent="yxQGtqw12CraclqnggF_-116" vertex="1">
          <mxGeometry y="110" width="190" height="8" as="geometry" />
        </mxCell>
        <mxCell id="yxQGtqw12CraclqnggF_-119" value="&lt;div&gt;+ getFullName(): String&lt;/div&gt;&lt;div&gt;+ getAddress(): String&lt;/div&gt;&lt;div&gt;+ getNationalID(): String&lt;/div&gt;&lt;div&gt;+ getContactNumber(): String&lt;/div&gt;" style="text;strokeColor=none;fillColor=none;align=left;verticalAlign=top;spacingLeft=4;spacingRight=4;overflow=hidden;rotatable=0;points=[[0,0.5],[1,0.5]];portConstraint=eastwest;whiteSpace=wrap;html=1;" parent="yxQGtqw12CraclqnggF_-116" vertex="1">
          <mxGeometry y="118" width="190" height="72" as="geometry" />
        </mxCell>
        <mxCell id="yxQGtqw12CraclqnggF_-120" value="Extends" style="endArrow=block;endSize=16;endFill=0;html=1;rounded=0;exitX=0;exitY=0.25;exitDx=0;exitDy=0;entryX=0.611;entryY=1.056;entryDx=0;entryDy=0;entryPerimeter=0;edgeStyle=elbowEdgeStyle;elbow=vertical;" parent="1" source="yxQGtqw12CraclqnggF_-101" target="yxQGtqw12CraclqnggF_-119" edge="1">
          <mxGeometry width="160" relative="1" as="geometry">
            <mxPoint x="430" y="-70" as="sourcePoint" />
            <mxPoint x="590" y="-70" as="targetPoint" />
            <Array as="points">
              <mxPoint x="400" y="40" />
            </Array>
          </mxGeometry>
        </mxCell>
        <mxCell id="yxQGtqw12CraclqnggF_-121" value="" style="endArrow=none;html=1;edgeStyle=orthogonalEdgeStyle;rounded=0;exitX=0.5;exitY=0;exitDx=0;exitDy=0;entryX=0;entryY=0.5;entryDx=0;entryDy=0;" parent="1" source="yxQGtqw12CraclqnggF_-101" target="yxQGtqw12CraclqnggF_-110" edge="1">
          <mxGeometry relative="1" as="geometry">
            <mxPoint x="550" y="-70" as="sourcePoint" />
            <mxPoint x="710" y="-70" as="targetPoint" />
          </mxGeometry>
        </mxCell>
        <mxCell id="yxQGtqw12CraclqnggF_-122" value="1" style="edgeLabel;resizable=0;html=1;align=left;verticalAlign=bottom;" parent="yxQGtqw12CraclqnggF_-121" connectable="0" vertex="1">
          <mxGeometry x="-1" relative="1" as="geometry" />
        </mxCell>
        <mxCell id="yxQGtqw12CraclqnggF_-123" value="1..*" style="edgeLabel;resizable=0;html=1;align=right;verticalAlign=bottom;" parent="yxQGtqw12CraclqnggF_-121" connectable="0" vertex="1">
          <mxGeometry x="1" relative="1" as="geometry" />
        </mxCell>
        <mxCell id="yxQGtqw12CraclqnggF_-124" value="" style="endArrow=diamondThin;endFill=0;endSize=24;html=1;rounded=0;exitX=0.5;exitY=0;exitDx=0;exitDy=0;edgeStyle=elbowEdgeStyle;entryX=1;entryY=0.5;entryDx=0;entryDy=0;" parent="1" source="yxQGtqw12CraclqnggF_-112" target="yxQGtqw12CraclqnggF_-110" edge="1">
          <mxGeometry width="160" relative="1" as="geometry">
            <mxPoint x="1120" y="-120" as="sourcePoint" />
            <mxPoint x="1120" y="-150" as="targetPoint" />
          </mxGeometry>
        </mxCell>
        <mxCell id="yxQGtqw12CraclqnggF_-125" value="&lt;span style=&quot;font-weight: 400;&quot;&gt;&amp;lt;&amp;lt;abstract&amp;gt;&amp;gt;&lt;/span&gt;&lt;div style=&quot;font-weight: 400;&quot;&gt;Staff&lt;/div&gt;" style="swimlane;fontStyle=1;align=center;verticalAlign=top;childLayout=stackLayout;horizontal=1;startSize=40;horizontalStack=0;resizeParent=1;resizeParentMax=0;resizeLast=0;collapsible=1;marginBottom=0;whiteSpace=wrap;html=1;" parent="1" vertex="1">
          <mxGeometry x="-200" y="6" width="140" height="78" as="geometry" />
        </mxCell>
        <mxCell id="yxQGtqw12CraclqnggF_-126" value="&lt;div&gt;- staffID: String&lt;/div&gt;&lt;div&gt;&lt;span style=&quot;background-color: transparent; color: light-dark(rgb(0, 0, 0), rgb(255, 255, 255));&quot;&gt;&lt;br&gt;&lt;/span&gt;&lt;/div&gt;" style="text;strokeColor=none;fillColor=none;align=left;verticalAlign=top;spacingLeft=4;spacingRight=4;overflow=hidden;rotatable=0;points=[[0,0.5],[1,0.5]];portConstraint=eastwest;whiteSpace=wrap;html=1;" parent="yxQGtqw12CraclqnggF_-125" vertex="1">
          <mxGeometry y="40" width="140" height="38" as="geometry" />
        </mxCell>
        <mxCell id="yxQGtqw12CraclqnggF_-127" value="&lt;h4 style=&quot;line-height: 28.575px; margin: 18.288px 0px 13.716px; color: rgb(248, 250, 255); font-family: quote-cjk-patch, Inter, system-ui, -apple-system, BlinkMacSystemFont, &amp;quot;Segoe UI&amp;quot;, Roboto, &amp;quot;Noto Sans&amp;quot;, Ubuntu, Cantarell, &amp;quot;Helvetica Neue&amp;quot;, Oxygen, &amp;quot;Open Sans&amp;quot;, sans-serif; text-align: start;&quot;&gt;&lt;font style=&quot;&quot;&gt;FrontDeskStaff&lt;/font&gt;&lt;/h4&gt;" style="swimlane;fontStyle=0;childLayout=stackLayout;horizontal=1;startSize=26;fillColor=none;horizontalStack=0;resizeParent=1;resizeParentMax=0;resizeLast=0;collapsible=1;marginBottom=0;whiteSpace=wrap;html=1;" parent="1" vertex="1">
          <mxGeometry x="-860" y="-72" width="400" height="140" as="geometry" />
        </mxCell>
        <mxCell id="yxQGtqw12CraclqnggF_-128" value="&lt;div&gt;+ registerCustomer(customer: Customer, car: Car): void&lt;br&gt;&lt;br&gt;&lt;/div&gt;&lt;div&gt;+ scheduleAppointment(customer: Customer, time: LocalTime): boolean&lt;/div&gt;&lt;div&gt;&lt;br&gt;&lt;/div&gt;&lt;div&gt;+ calculateBill(customer: Customer): double&lt;/div&gt;&lt;div&gt;&lt;br&gt;&lt;/div&gt;&lt;div&gt;+ printDailyAppointments(): void&lt;/div&gt;" style="text;strokeColor=none;fillColor=none;align=left;verticalAlign=top;spacingLeft=4;spacingRight=4;overflow=hidden;rotatable=0;points=[[0,0.5],[1,0.5]];portConstraint=eastwest;whiteSpace=wrap;html=1;" parent="yxQGtqw12CraclqnggF_-127" vertex="1">
          <mxGeometry y="26" width="400" height="114" as="geometry" />
        </mxCell>
        <mxCell id="yxQGtqw12CraclqnggF_-129" value="Extends" style="endArrow=block;endSize=16;endFill=0;html=1;rounded=0;exitX=0.5;exitY=0;exitDx=0;exitDy=0;entryX=0.353;entryY=1.042;entryDx=0;entryDy=0;entryPerimeter=0;edgeStyle=elbowEdgeStyle;elbow=vertical;" parent="1" source="yxQGtqw12CraclqnggF_-125" target="yxQGtqw12CraclqnggF_-119" edge="1">
          <mxGeometry width="160" relative="1" as="geometry">
            <mxPoint x="-120" y="-70" as="sourcePoint" />
            <mxPoint x="40" y="-70" as="targetPoint" />
          </mxGeometry>
        </mxCell>
        <mxCell id="yxQGtqw12CraclqnggF_-130" value="Extends" style="endArrow=block;endSize=16;endFill=0;html=1;rounded=0;exitX=1;exitY=0.5;exitDx=0;exitDy=0;entryX=0;entryY=0.5;entryDx=0;entryDy=0;edgeStyle=elbowEdgeStyle;" parent="1" source="yxQGtqw12CraclqnggF_-128" target="yxQGtqw12CraclqnggF_-125" edge="1">
          <mxGeometry width="160" relative="1" as="geometry">
            <mxPoint x="-340" y="-110" as="sourcePoint" />
            <mxPoint x="-180" y="-110" as="targetPoint" />
          </mxGeometry>
        </mxCell>
        <mxCell id="yxQGtqw12CraclqnggF_-131" value="&lt;h4 style=&quot;line-height: 28.575px; margin: 18.288px 0px 13.716px; color: rgb(248, 250, 255); font-family: quote-cjk-patch, Inter, system-ui, -apple-system, BlinkMacSystemFont, &amp;quot;Segoe UI&amp;quot;, Roboto, &amp;quot;Noto Sans&amp;quot;, Ubuntu, Cantarell, &amp;quot;Helvetica Neue&amp;quot;, Oxygen, &amp;quot;Open Sans&amp;quot;, sans-serif; text-align: start;&quot;&gt;&lt;font style=&quot;&quot;&gt;Mechanic&lt;/font&gt;&lt;/h4&gt;" style="swimlane;fontStyle=0;childLayout=stackLayout;horizontal=1;startSize=26;fillColor=none;horizontalStack=0;resizeParent=1;resizeParentMax=0;resizeLast=0;collapsible=1;marginBottom=0;whiteSpace=wrap;html=1;" parent="1" vertex="1">
          <mxGeometry x="-320" y="-290" width="500" height="90" as="geometry" />
        </mxCell>
        <mxCell id="yxQGtqw12CraclqnggF_-132" value="&lt;div&gt;+ viewScheduledAppointments(): List&amp;lt;Appointment&amp;gt;&lt;/div&gt;&lt;div&gt;&lt;br&gt;&lt;/div&gt;&lt;div&gt;+ addServiceReport(appointment: Appointment, repairs: String, parts: List&amp;lt;String&amp;gt;): void&lt;/div&gt;" style="text;strokeColor=none;fillColor=none;align=left;verticalAlign=top;spacingLeft=4;spacingRight=4;overflow=hidden;rotatable=0;points=[[0,0.5],[1,0.5]];portConstraint=eastwest;whiteSpace=wrap;html=1;" parent="yxQGtqw12CraclqnggF_-131" vertex="1">
          <mxGeometry y="26" width="500" height="64" as="geometry" />
        </mxCell>
        <mxCell id="yxQGtqw12CraclqnggF_-133" value="Extends" style="endArrow=block;endSize=16;endFill=0;html=1;rounded=0;exitX=0.763;exitY=1.002;exitDx=0;exitDy=0;edgeStyle=elbowEdgeStyle;entryX=0.25;entryY=0;entryDx=0;entryDy=0;exitPerimeter=0;elbow=vertical;" parent="1" source="yxQGtqw12CraclqnggF_-132" target="yxQGtqw12CraclqnggF_-125" edge="1">
          <mxGeometry width="160" relative="1" as="geometry">
            <mxPoint x="-350" y="110" as="sourcePoint" />
            <mxPoint x="-170" y="-50" as="targetPoint" />
          </mxGeometry>
        </mxCell>
        <mxCell id="yxQGtqw12CraclqnggF_-134" value="&lt;h4 style=&quot;line-height: 28.575px; margin: 18.288px 0px 13.716px; color: rgb(248, 250, 255); font-family: quote-cjk-patch, Inter, system-ui, -apple-system, BlinkMacSystemFont, &amp;quot;Segoe UI&amp;quot;, Roboto, &amp;quot;Noto Sans&amp;quot;, Ubuntu, Cantarell, &amp;quot;Helvetica Neue&amp;quot;, Oxygen, &amp;quot;Open Sans&amp;quot;, sans-serif; text-align: start;&quot;&gt;&lt;font style=&quot;&quot;&gt;Technician&lt;/font&gt;&lt;/h4&gt;" style="swimlane;fontStyle=0;childLayout=stackLayout;horizontal=1;startSize=26;fillColor=none;horizontalStack=0;resizeParent=1;resizeParentMax=0;resizeLast=0;collapsible=1;marginBottom=0;whiteSpace=wrap;html=1;" parent="1" vertex="1">
          <mxGeometry x="-284" y="140" width="340" height="90" as="geometry" />
        </mxCell>
        <mxCell id="yxQGtqw12CraclqnggF_-135" value="&lt;div&gt;+ addDiagnosticResults(appointment: Appointment, issues: String, recommendations: String):&amp;nbsp;&lt;span style=&quot;text-align: center; background-color: transparent; color: light-dark(rgb(0, 0, 0), rgb(255, 255, 255));&quot;&gt;DiagnosticReport&lt;/span&gt;&lt;/div&gt;&lt;div&gt;&lt;br&gt;&lt;/div&gt;&lt;div&gt;+ generateDailyReport(): String&lt;/div&gt;" style="text;strokeColor=none;fillColor=none;align=left;verticalAlign=top;spacingLeft=4;spacingRight=4;overflow=hidden;rotatable=0;points=[[0,0.5],[1,0.5]];portConstraint=eastwest;whiteSpace=wrap;html=1;" parent="yxQGtqw12CraclqnggF_-134" vertex="1">
          <mxGeometry y="26" width="340" height="64" as="geometry" />
        </mxCell>
        <mxCell id="yxQGtqw12CraclqnggF_-136" value="Extends" style="endArrow=block;endSize=16;endFill=0;html=1;rounded=0;exitX=0.25;exitY=0;exitDx=0;exitDy=0;entryX=0.364;entryY=0.895;entryDx=0;entryDy=0;entryPerimeter=0;edgeStyle=elbowEdgeStyle;elbow=vertical;" parent="1" source="yxQGtqw12CraclqnggF_-134" target="yxQGtqw12CraclqnggF_-126" edge="1">
          <mxGeometry width="160" relative="1" as="geometry">
            <mxPoint x="-90" y="120" as="sourcePoint" />
            <mxPoint x="70" y="120" as="targetPoint" />
          </mxGeometry>
        </mxCell>
        <mxCell id="yxQGtqw12CraclqnggF_-137" value="Appointment" style="swimlane;fontStyle=1;align=center;verticalAlign=top;childLayout=stackLayout;horizontal=1;startSize=26;horizontalStack=0;resizeParent=1;resizeParentMax=0;resizeLast=0;collapsible=1;marginBottom=0;whiteSpace=wrap;html=1;" parent="1" vertex="1">
          <mxGeometry x="-450" y="280" width="210" height="210" as="geometry" />
        </mxCell>
        <mxCell id="yxQGtqw12CraclqnggF_-138" value="&lt;div&gt;- appointmentId: String&lt;/div&gt;&lt;div&gt;- customer: Customer&lt;/div&gt;&lt;div&gt;- car: Car&lt;/div&gt;&lt;div&gt;- appointmentTime: LocalTime&lt;/div&gt;&lt;div&gt;&lt;span style=&quot;background-color: transparent; color: light-dark(rgb(0, 0, 0), rgb(255, 255, 255));&quot;&gt;- serviceReport: String&lt;/span&gt;&lt;br&gt;&lt;/div&gt;&lt;div&gt;- diagnosticResults: String&lt;br&gt;&lt;/div&gt;" style="text;strokeColor=none;fillColor=none;align=left;verticalAlign=top;spacingLeft=4;spacingRight=4;overflow=hidden;rotatable=0;points=[[0,0.5],[1,0.5]];portConstraint=eastwest;whiteSpace=wrap;html=1;" parent="yxQGtqw12CraclqnggF_-137" vertex="1">
          <mxGeometry y="26" width="210" height="104" as="geometry" />
        </mxCell>
        <mxCell id="BIOBiWPMVkpgxvFOGxXH-1" value="" style="line;strokeWidth=1;fillColor=none;align=left;verticalAlign=middle;spacingTop=-1;spacingLeft=3;spacingRight=3;rotatable=0;labelPosition=right;points=[];portConstraint=eastwest;strokeColor=inherit;" vertex="1" parent="yxQGtqw12CraclqnggF_-137">
          <mxGeometry y="130" width="210" height="50" as="geometry" />
        </mxCell>
        <mxCell id="BIOBiWPMVkpgxvFOGxXH-2" value="&lt;span style=&quot;&quot;&gt;+ getFullreport(): string&lt;/span&gt;" style="text;html=1;align=left;verticalAlign=middle;whiteSpace=wrap;rounded=0;" vertex="1" parent="yxQGtqw12CraclqnggF_-137">
          <mxGeometry y="180" width="210" height="30" as="geometry" />
        </mxCell>
        <mxCell id="yxQGtqw12CraclqnggF_-139" value="Use" style="endArrow=open;endSize=12;dashed=1;html=1;rounded=0;exitX=0.5;exitY=0;exitDx=0;exitDy=0;entryX=0.929;entryY=0.004;entryDx=0;entryDy=0;edgeStyle=elbowEdgeStyle;elbow=vertical;entryPerimeter=0;" parent="1" source="yxQGtqw12CraclqnggF_-127" target="yxQGtqw12CraclqnggF_-110" edge="1">
          <mxGeometry width="160" relative="1" as="geometry">
            <mxPoint x="-530" y="-150" as="sourcePoint" />
            <mxPoint x="550" y="-360" as="targetPoint" />
            <Array as="points">
              <mxPoint x="170" y="-700" />
            </Array>
          </mxGeometry>
        </mxCell>
        <mxCell id="yxQGtqw12CraclqnggF_-140" value="Use" style="endArrow=open;endSize=12;dashed=1;html=1;rounded=0;exitX=0.75;exitY=0;exitDx=0;exitDy=0;edgeStyle=elbowEdgeStyle;elbow=vertical;entryX=0;entryY=0;entryDx=0;entryDy=0;" parent="1" source="yxQGtqw12CraclqnggF_-127" target="yxQGtqw12CraclqnggF_-101" edge="1">
          <mxGeometry x="-0.0004" width="160" relative="1" as="geometry">
            <mxPoint x="-280" y="-260" as="sourcePoint" />
            <mxPoint x="710" y="-240" as="targetPoint" />
            <Array as="points">
              <mxPoint x="-70" y="-630" />
            </Array>
            <mxPoint as="offset" />
          </mxGeometry>
        </mxCell>
        <mxCell id="yxQGtqw12CraclqnggF_-141" value="" style="endArrow=none;html=1;edgeStyle=elbowEdgeStyle;rounded=0;exitX=1;exitY=0.5;exitDx=0;exitDy=0;entryX=0;entryY=0.5;entryDx=0;entryDy=0;" parent="1" source="yxQGtqw12CraclqnggF_-138" target="yxQGtqw12CraclqnggF_-102" edge="1">
          <mxGeometry relative="1" as="geometry">
            <mxPoint x="70" y="400" as="sourcePoint" />
            <mxPoint x="230" y="80" as="targetPoint" />
          </mxGeometry>
        </mxCell>
        <mxCell id="yxQGtqw12CraclqnggF_-142" value="0..*" style="edgeLabel;resizable=0;html=1;align=left;verticalAlign=bottom;" parent="yxQGtqw12CraclqnggF_-141" connectable="0" vertex="1">
          <mxGeometry x="-1" relative="1" as="geometry" />
        </mxCell>
        <mxCell id="yxQGtqw12CraclqnggF_-143" value="1" style="edgeLabel;resizable=0;html=1;align=right;verticalAlign=bottom;" parent="yxQGtqw12CraclqnggF_-141" connectable="0" vertex="1">
          <mxGeometry x="1" relative="1" as="geometry" />
        </mxCell>
        <mxCell id="yxQGtqw12CraclqnggF_-144" value="AppointmentList" style="swimlane;fontStyle=1;align=center;verticalAlign=top;childLayout=stackLayout;horizontal=1;startSize=30;horizontalStack=0;resizeParent=1;resizeParentMax=0;resizeLast=0;collapsible=1;marginBottom=0;whiteSpace=wrap;html=1;" parent="1" vertex="1">
          <mxGeometry x="-300" y="540" width="310" height="130" as="geometry" />
        </mxCell>
        <mxCell id="yxQGtqw12CraclqnggF_-145" value="&lt;div&gt;- appointments: List&amp;lt;Appointment&amp;gt;&lt;/div&gt;&lt;div&gt;&lt;br&gt;&lt;/div&gt;" style="text;strokeColor=none;fillColor=none;align=left;verticalAlign=top;spacingLeft=4;spacingRight=4;overflow=hidden;rotatable=0;points=[[0,0.5],[1,0.5]];portConstraint=eastwest;whiteSpace=wrap;html=1;" parent="yxQGtqw12CraclqnggF_-144" vertex="1">
          <mxGeometry y="30" width="310" height="30" as="geometry" />
        </mxCell>
        <mxCell id="yxQGtqw12CraclqnggF_-146" value="" style="line;strokeWidth=1;fillColor=none;align=left;verticalAlign=middle;spacingTop=-1;spacingLeft=3;spacingRight=3;rotatable=0;labelPosition=right;points=[];portConstraint=eastwest;strokeColor=inherit;" parent="yxQGtqw12CraclqnggF_-144" vertex="1">
          <mxGeometry y="60" width="310" height="8" as="geometry" />
        </mxCell>
        <mxCell id="yxQGtqw12CraclqnggF_-147" value="&lt;div&gt;+ addAppointment(appointment: Appointment): void&lt;/div&gt;&lt;div&gt;&lt;span style=&quot;background-color: transparent; color: light-dark(rgb(0, 0, 0), rgb(255, 255, 255));&quot;&gt;+ getAllAppointments(): List&amp;lt;Appointment&amp;gt;&lt;/span&gt;&lt;br&gt;&lt;/div&gt;" style="text;strokeColor=none;fillColor=none;align=left;verticalAlign=top;spacingLeft=4;spacingRight=4;overflow=hidden;rotatable=0;points=[[0,0.5],[1,0.5]];portConstraint=eastwest;whiteSpace=wrap;html=1;" parent="yxQGtqw12CraclqnggF_-144" vertex="1">
          <mxGeometry y="68" width="310" height="62" as="geometry" />
        </mxCell>
        <mxCell id="yxQGtqw12CraclqnggF_-148" value="" style="endArrow=diamondThin;endFill=0;endSize=24;html=1;rounded=0;exitX=0.144;exitY=-0.008;exitDx=0;exitDy=0;edgeStyle=elbowEdgeStyle;elbow=vertical;exitPerimeter=0;entryX=0.75;entryY=1;entryDx=0;entryDy=0;" parent="1" source="yxQGtqw12CraclqnggF_-144" target="BIOBiWPMVkpgxvFOGxXH-2" edge="1">
          <mxGeometry width="160" relative="1" as="geometry">
            <mxPoint x="-320" y="570" as="sourcePoint" />
            <mxPoint x="-320" y="407" as="targetPoint" />
          </mxGeometry>
        </mxCell>
        <mxCell id="yxQGtqw12CraclqnggF_-149" value="" style="endArrow=none;html=1;edgeStyle=orthogonalEdgeStyle;rounded=0;exitX=1;exitY=0.5;exitDx=0;exitDy=0;entryX=0;entryY=0.5;entryDx=0;entryDy=0;" parent="1" source="yxQGtqw12CraclqnggF_-145" target="yxQGtqw12CraclqnggF_-102" edge="1">
          <mxGeometry relative="1" as="geometry">
            <mxPoint x="40" y="630" as="sourcePoint" />
            <mxPoint x="290" y="80" as="targetPoint" />
            <Array as="points">
              <mxPoint x="130" y="377" />
              <mxPoint x="130" y="80" />
              <mxPoint x="480" y="80" />
            </Array>
          </mxGeometry>
        </mxCell>
        <mxCell id="yxQGtqw12CraclqnggF_-150" value="" style="endArrow=none;html=1;edgeStyle=orthogonalEdgeStyle;rounded=0;exitX=0.824;exitY=1;exitDx=0;exitDy=0;exitPerimeter=0;entryX=1;entryY=0.818;entryDx=0;entryDy=0;entryPerimeter=0;jumpStyle=arc;" parent="1" source="yxQGtqw12CraclqnggF_-110" target="yxQGtqw12CraclqnggF_-138" edge="1">
          <mxGeometry relative="1" as="geometry">
            <mxPoint x="1040" y="200" as="sourcePoint" />
            <mxPoint x="1200" y="200" as="targetPoint" />
          </mxGeometry>
        </mxCell>
        <mxCell id="yxQGtqw12CraclqnggF_-151" value="1" style="edgeLabel;resizable=0;html=1;align=left;verticalAlign=bottom;" parent="yxQGtqw12CraclqnggF_-150" connectable="0" vertex="1">
          <mxGeometry x="-1" relative="1" as="geometry">
            <mxPoint y="20" as="offset" />
          </mxGeometry>
        </mxCell>
        <mxCell id="yxQGtqw12CraclqnggF_-152" value="1" style="edgeLabel;resizable=0;html=1;align=right;verticalAlign=bottom;" parent="yxQGtqw12CraclqnggF_-150" connectable="0" vertex="1">
          <mxGeometry x="1" relative="1" as="geometry">
            <mxPoint x="10" as="offset" />
          </mxGeometry>
        </mxCell>
        <mxCell id="yxQGtqw12CraclqnggF_-153" value="Use" style="endArrow=open;endSize=12;dashed=1;html=1;rounded=0;exitX=0.071;exitY=0.99;exitDx=0;exitDy=0;exitPerimeter=0;entryX=0;entryY=0.5;entryDx=0;entryDy=0;edgeStyle=elbowEdgeStyle;" parent="1" source="yxQGtqw12CraclqnggF_-128" target="yxQGtqw12CraclqnggF_-138" edge="1">
          <mxGeometry width="160" relative="1" as="geometry">
            <mxPoint x="-980" y="130" as="sourcePoint" />
            <mxPoint x="-820" y="130" as="targetPoint" />
            <Array as="points">
              <mxPoint x="-840" y="230" />
            </Array>
          </mxGeometry>
        </mxCell>
        <mxCell id="yxQGtqw12CraclqnggF_-154" value="Use" style="endArrow=open;endSize=12;dashed=1;html=1;rounded=0;exitX=0.014;exitY=0.995;exitDx=0;exitDy=0;exitPerimeter=0;entryX=0.438;entryY=-0.012;entryDx=0;entryDy=0;edgeStyle=elbowEdgeStyle;elbow=vertical;entryPerimeter=0;" parent="1" source="yxQGtqw12CraclqnggF_-132" target="yxQGtqw12CraclqnggF_-137" edge="1">
          <mxGeometry width="160" relative="1" as="geometry">
            <mxPoint x="-610" y="280" as="sourcePoint" />
            <mxPoint x="-450" y="280" as="targetPoint" />
            <Array as="points">
              <mxPoint x="-190" y="-150" />
            </Array>
          </mxGeometry>
        </mxCell>
        <mxCell id="yxQGtqw12CraclqnggF_-155" value="Use" style="endArrow=open;endSize=12;dashed=1;html=1;rounded=0;exitX=0.15;exitY=0.938;exitDx=0;exitDy=0;exitPerimeter=0;entryX=0.75;entryY=0;entryDx=0;entryDy=0;edgeStyle=elbowEdgeStyle;elbow=vertical;" parent="1" source="yxQGtqw12CraclqnggF_-135" target="yxQGtqw12CraclqnggF_-137" edge="1">
          <mxGeometry width="160" relative="1" as="geometry">
            <mxPoint x="-254" y="234" as="sourcePoint" />
            <mxPoint x="-200" y="280" as="targetPoint" />
          </mxGeometry>
        </mxCell>
        <mxCell id="yxQGtqw12CraclqnggF_-159" value="DiagnosticReport" style="swimlane;fontStyle=1;align=center;verticalAlign=top;childLayout=stackLayout;horizontal=1;startSize=26;horizontalStack=0;resizeParent=1;resizeParentMax=0;resizeLast=0;collapsible=1;marginBottom=0;whiteSpace=wrap;html=1;" parent="1" vertex="1">
          <mxGeometry x="-750" y="140" width="250" height="110" as="geometry" />
        </mxCell>
        <mxCell id="yxQGtqw12CraclqnggF_-160" value="&lt;div&gt;- reportId: String&lt;/div&gt;&lt;div&gt;- technicianId: String&lt;/div&gt;&lt;div&gt;- findings: String&lt;/div&gt;&lt;div&gt;- recommendations: String&lt;/div&gt;&lt;div&gt;- relatedAppointmentId: String&amp;nbsp;&lt;/div&gt;" style="text;strokeColor=none;fillColor=none;align=left;verticalAlign=top;spacingLeft=4;spacingRight=4;overflow=hidden;rotatable=0;points=[[0,0.5],[1,0.5]];portConstraint=eastwest;whiteSpace=wrap;html=1;" parent="yxQGtqw12CraclqnggF_-159" vertex="1">
          <mxGeometry y="26" width="250" height="84" as="geometry" />
        </mxCell>
        <mxCell id="yxQGtqw12CraclqnggF_-161" value="ServiceReport" style="swimlane;fontStyle=1;align=center;verticalAlign=top;childLayout=stackLayout;horizontal=1;startSize=26;horizontalStack=0;resizeParent=1;resizeParentMax=0;resizeLast=0;collapsible=1;marginBottom=0;whiteSpace=wrap;html=1;" parent="1" vertex="1">
          <mxGeometry x="-420" y="-550" width="250" height="110" as="geometry" />
        </mxCell>
        <mxCell id="yxQGtqw12CraclqnggF_-162" value="&lt;div&gt;- reportId: String&lt;/div&gt;&lt;div&gt;- mechanicId: String&lt;/div&gt;&lt;div&gt;- repairsPerformed: String&lt;/div&gt;&lt;div&gt;- partsUsed: List&amp;lt;String&amp;gt;&lt;/div&gt;&lt;div&gt;- relatedAppointmentId: String&lt;/div&gt;&lt;div&gt;&lt;br&gt;&lt;/div&gt;" style="text;strokeColor=none;fillColor=none;align=left;verticalAlign=top;spacingLeft=4;spacingRight=4;overflow=hidden;rotatable=0;points=[[0,0.5],[1,0.5]];portConstraint=eastwest;whiteSpace=wrap;html=1;" parent="yxQGtqw12CraclqnggF_-161" vertex="1">
          <mxGeometry y="26" width="250" height="84" as="geometry" />
        </mxCell>
        <mxCell id="yxQGtqw12CraclqnggF_-163" value="Use" style="endArrow=open;endSize=12;dashed=1;html=1;rounded=0;exitX=0;exitY=0.5;exitDx=0;exitDy=0;edgeStyle=elbowEdgeStyle;" parent="1" source="yxQGtqw12CraclqnggF_-135" target="yxQGtqw12CraclqnggF_-160" edge="1">
          <mxGeometry x="-0.3214" y="2" width="160" relative="1" as="geometry">
            <mxPoint x="-470" y="200" as="sourcePoint" />
            <mxPoint x="-310" y="200" as="targetPoint" />
            <Array as="points">
              <mxPoint x="-470" y="190" />
            </Array>
            <mxPoint as="offset" />
          </mxGeometry>
        </mxCell>
        <mxCell id="yxQGtqw12CraclqnggF_-164" value="Use" style="endArrow=open;endSize=12;dashed=1;html=1;rounded=0;exitX=0.25;exitY=0;exitDx=0;exitDy=0;edgeStyle=elbowEdgeStyle;elbow=vertical;" parent="1" source="yxQGtqw12CraclqnggF_-131" target="yxQGtqw12CraclqnggF_-162" edge="1">
          <mxGeometry width="160" relative="1" as="geometry">
            <mxPoint x="-270" y="-380" as="sourcePoint" />
            <mxPoint x="-140" y="-330" as="targetPoint" />
          </mxGeometry>
        </mxCell>
        <mxCell id="yxQGtqw12CraclqnggF_-165" value="" style="endArrow=none;html=1;edgeStyle=orthogonalEdgeStyle;rounded=0;exitX=0.137;exitY=1.009;exitDx=0;exitDy=0;exitPerimeter=0;entryX=0.538;entryY=0.003;entryDx=0;entryDy=0;entryPerimeter=0;jumpStyle=arc;" parent="1" source="yxQGtqw12CraclqnggF_-132" target="yxQGtqw12CraclqnggF_-137" edge="1">
          <mxGeometry relative="1" as="geometry">
            <mxPoint x="-290" y="-110" as="sourcePoint" />
            <mxPoint x="-130" y="-110" as="targetPoint" />
            <Array as="points">
              <mxPoint x="-252" y="-20" />
              <mxPoint x="-337" y="-20" />
            </Array>
          </mxGeometry>
        </mxCell>
        <mxCell id="yxQGtqw12CraclqnggF_-166" value="1" style="edgeLabel;resizable=0;html=1;align=left;verticalAlign=bottom;" parent="yxQGtqw12CraclqnggF_-165" connectable="0" vertex="1">
          <mxGeometry x="-1" relative="1" as="geometry">
            <mxPoint x="12" y="17" as="offset" />
          </mxGeometry>
        </mxCell>
        <mxCell id="yxQGtqw12CraclqnggF_-167" value="1..*" style="edgeLabel;resizable=0;html=1;align=right;verticalAlign=bottom;" parent="yxQGtqw12CraclqnggF_-165" connectable="0" vertex="1">
          <mxGeometry x="1" relative="1" as="geometry" />
        </mxCell>
        <mxCell id="yxQGtqw12CraclqnggF_-168" value="" style="endArrow=none;html=1;edgeStyle=orthogonalEdgeStyle;rounded=0;exitX=0.45;exitY=1.013;exitDx=0;exitDy=0;exitPerimeter=0;entryX=1.018;entryY=0.08;entryDx=0;entryDy=0;entryPerimeter=0;" parent="1" source="yxQGtqw12CraclqnggF_-135" target="yxQGtqw12CraclqnggF_-138" edge="1">
          <mxGeometry relative="1" as="geometry">
            <mxPoint x="-140" y="300" as="sourcePoint" />
            <mxPoint x="20" y="300" as="targetPoint" />
          </mxGeometry>
        </mxCell>
        <mxCell id="yxQGtqw12CraclqnggF_-169" value="1" style="edgeLabel;resizable=0;html=1;align=left;verticalAlign=bottom;" parent="yxQGtqw12CraclqnggF_-168" connectable="0" vertex="1">
          <mxGeometry x="-1" relative="1" as="geometry">
            <mxPoint y="19" as="offset" />
          </mxGeometry>
        </mxCell>
        <mxCell id="yxQGtqw12CraclqnggF_-170" value="1..*" style="edgeLabel;resizable=0;html=1;align=right;verticalAlign=bottom;" parent="yxQGtqw12CraclqnggF_-168" connectable="0" vertex="1">
          <mxGeometry x="1" relative="1" as="geometry">
            <mxPoint x="26" y="-4" as="offset" />
          </mxGeometry>
        </mxCell>
        <mxCell id="yxQGtqw12CraclqnggF_-171" value="" style="endArrow=none;html=1;edgeStyle=orthogonalEdgeStyle;rounded=0;exitX=0.786;exitY=0.968;exitDx=0;exitDy=0;exitPerimeter=0;entryX=-0.013;entryY=0.147;entryDx=0;entryDy=0;entryPerimeter=0;" parent="1" source="yxQGtqw12CraclqnggF_-160" target="yxQGtqw12CraclqnggF_-138" edge="1">
          <mxGeometry relative="1" as="geometry">
            <mxPoint x="-570" y="280.01399999999995" as="sourcePoint" />
            <mxPoint x="-542.25" y="336.57" as="targetPoint" />
            <Array as="points">
              <mxPoint x="-554" y="280" />
              <mxPoint x="-554" y="307" />
              <mxPoint x="-554" y="321" />
            </Array>
          </mxGeometry>
        </mxCell>
        <mxCell id="yxQGtqw12CraclqnggF_-172" value="1" style="edgeLabel;resizable=0;html=1;align=left;verticalAlign=bottom;" parent="yxQGtqw12CraclqnggF_-171" connectable="0" vertex="1">
          <mxGeometry x="-1" relative="1" as="geometry">
            <mxPoint x="4" y="23" as="offset" />
          </mxGeometry>
        </mxCell>
        <mxCell id="yxQGtqw12CraclqnggF_-173" value="1" style="edgeLabel;resizable=0;html=1;align=right;verticalAlign=bottom;" parent="yxQGtqw12CraclqnggF_-171" connectable="0" vertex="1">
          <mxGeometry x="1" relative="1" as="geometry" />
        </mxCell>
        <mxCell id="yxQGtqw12CraclqnggF_-174" value="" style="endArrow=none;html=1;edgeStyle=elbowEdgeStyle;rounded=0;exitX=0.009;exitY=0.911;exitDx=0;exitDy=0;exitPerimeter=0;entryX=0.095;entryY=0.03;entryDx=0;entryDy=0;entryPerimeter=0;elbow=vertical;jumpStyle=arc;" parent="1" source="yxQGtqw12CraclqnggF_-162" target="yxQGtqw12CraclqnggF_-137" edge="1">
          <mxGeometry relative="1" as="geometry">
            <mxPoint x="-420" y="-440.0000000000002" as="sourcePoint" />
            <mxPoint x="-440.0499999999997" y="280" as="targetPoint" />
          </mxGeometry>
        </mxCell>
        <mxCell id="yxQGtqw12CraclqnggF_-175" value="1" style="edgeLabel;resizable=0;html=1;align=left;verticalAlign=bottom;" parent="yxQGtqw12CraclqnggF_-174" connectable="0" vertex="1">
          <mxGeometry x="-1" relative="1" as="geometry">
            <mxPoint x="-12" y="27" as="offset" />
          </mxGeometry>
        </mxCell>
        <mxCell id="yxQGtqw12CraclqnggF_-176" value="1" style="edgeLabel;resizable=0;html=1;align=right;verticalAlign=bottom;" parent="yxQGtqw12CraclqnggF_-174" connectable="0" vertex="1">
          <mxGeometry x="1" relative="1" as="geometry" />
        </mxCell>
        <mxCell id="yxQGtqw12CraclqnggF_-177" value="" style="endArrow=none;html=1;edgeStyle=orthogonalEdgeStyle;rounded=0;exitX=1.003;exitY=0.974;exitDx=0;exitDy=0;exitPerimeter=0;entryX=0.5;entryY=0;entryDx=0;entryDy=0;" parent="1" source="yxQGtqw12CraclqnggF_-162" target="yxQGtqw12CraclqnggF_-131" edge="1">
          <mxGeometry relative="1" as="geometry">
            <mxPoint x="-170" y="-350" as="sourcePoint" />
            <mxPoint x="-10" y="-350" as="targetPoint" />
          </mxGeometry>
        </mxCell>
        <mxCell id="yxQGtqw12CraclqnggF_-178" value="1..*" style="edgeLabel;resizable=0;html=1;align=left;verticalAlign=bottom;" parent="yxQGtqw12CraclqnggF_-177" connectable="0" vertex="1">
          <mxGeometry x="-1" relative="1" as="geometry" />
        </mxCell>
        <mxCell id="yxQGtqw12CraclqnggF_-179" value="1" style="edgeLabel;resizable=0;html=1;align=right;verticalAlign=bottom;" parent="yxQGtqw12CraclqnggF_-177" connectable="0" vertex="1">
          <mxGeometry x="1" relative="1" as="geometry" />
        </mxCell>
        <mxCell id="yxQGtqw12CraclqnggF_-180" value="" style="endArrow=none;html=1;edgeStyle=orthogonalEdgeStyle;rounded=0;exitX=1;exitY=0.25;exitDx=0;exitDy=0;entryX=0.021;entryY=0.007;entryDx=0;entryDy=0;entryPerimeter=0;" parent="1" source="yxQGtqw12CraclqnggF_-159" target="yxQGtqw12CraclqnggF_-135" edge="1">
          <mxGeometry relative="1" as="geometry">
            <mxPoint x="-480" y="140" as="sourcePoint" />
            <mxPoint x="-320" y="140" as="targetPoint" />
          </mxGeometry>
        </mxCell>
        <mxCell id="yxQGtqw12CraclqnggF_-181" value="1..*" style="edgeLabel;resizable=0;html=1;align=left;verticalAlign=bottom;" parent="yxQGtqw12CraclqnggF_-180" connectable="0" vertex="1">
          <mxGeometry x="-1" relative="1" as="geometry" />
        </mxCell>
        <mxCell id="yxQGtqw12CraclqnggF_-182" value="1" style="edgeLabel;resizable=0;html=1;align=right;verticalAlign=bottom;" parent="yxQGtqw12CraclqnggF_-180" connectable="0" vertex="1">
          <mxGeometry x="1" relative="1" as="geometry">
            <mxPoint x="-13" y="-7" as="offset" />
          </mxGeometry>
        </mxCell>
        <mxCell id="yxQGtqw12CraclqnggF_-183" value="" style="endArrow=diamondThin;endFill=0;endSize=24;html=1;rounded=0;edgeStyle=elbowEdgeStyle;exitX=-0.013;exitY=0.342;exitDx=0;exitDy=0;exitPerimeter=0;elbow=vertical;entryX=0.179;entryY=1.025;entryDx=0;entryDy=0;entryPerimeter=0;" parent="1" source="yxQGtqw12CraclqnggF_-138" target="yxQGtqw12CraclqnggF_-160" edge="1">
          <mxGeometry width="160" relative="1" as="geometry">
            <mxPoint x="-750" y="330" as="sourcePoint" />
            <mxPoint x="-740" y="290" as="targetPoint" />
            <Array as="points">
              <mxPoint x="-590" y="340" />
            </Array>
          </mxGeometry>
        </mxCell>
        <mxCell id="yxQGtqw12CraclqnggF_-184" value="" style="endArrow=diamondThin;endFill=0;endSize=24;html=1;rounded=0;exitX=0.25;exitY=0;exitDx=0;exitDy=0;entryX=0.206;entryY=0.969;entryDx=0;entryDy=0;entryPerimeter=0;edgeStyle=elbowEdgeStyle;elbow=vertical;jumpStyle=arc;" parent="1" source="yxQGtqw12CraclqnggF_-137" target="yxQGtqw12CraclqnggF_-162" edge="1">
          <mxGeometry width="160" relative="1" as="geometry">
            <mxPoint x="-510" y="-180" as="sourcePoint" />
            <mxPoint x="-350" y="-180" as="targetPoint" />
          </mxGeometry>
        </mxCell>
      </root>
    </mxGraphModel>
  </diagram>
</mxfile>
